<svg width="33" height="19" viewBox="0 0 33 19" fill="none" xmlns="http://www.w3.org/2000/svg">
<path d="M27.3177 11.647C26.9811 11.1903 26.9057 10.728 27.0896 10.2596C27.5486 9.0098 34.2334 1.07207 31.4486 1.07207C29.535 1.0975 27.2337 1.07207 25.3991 1.07207C25.0585 1.15497 24.8382 1.33371 24.7003 1.69736C23.6275 4.17104 22.3147 7.1898 20.3907 9.12992C20.1376 9.33399 19.9798 9.3253 19.6914 9.24983C18.3418 7.82897 19.7809 2.96106 18.9602 1.03758C18.7984 0.661071 18.4444 0.491014 18.0821 0.395254C16.2498 -0.0414194 12.0651 0.218503 11.3823 1.0975C11.1872 1.34878 11.1599 1.48591 11.3008 1.50846C11.9514 1.6111 12.4119 1.85662 12.683 2.24479C13.1943 3.37088 13.5712 9.36938 12.0651 9.36938C10.5591 9.36938 8.13052 3.4825 7.46334 1.85056C7.2858 1.35919 6.83384 1.07748 6.35761 0.994328L1.90202 1.0284C1.11884 1.0284 0.681132 1.41474 0.958724 2.19308C3.27938 7.95358 8.35778 19.1194 16.1467 18.8398C16.927 18.8398 18.2693 19.1394 18.8787 18.4629C19.7162 17.3519 18.6948 15.3732 20.1309 14.6186C20.493 14.4259 20.8684 14.5874 21.1795 14.8243C22.7768 16.0406 23.6249 18.1753 25.5947 18.8234C25.941 18.9375 26.2445 18.966 26.505 18.909L30.6678 18.8406C31.4406 18.8406 32.2019 18.4967 32.042 17.5728C31.4351 15.5914 29.0168 13.5547 27.3177 11.647Z" fill="#7027E2"/>
</svg>
