<svg width="28" height="28" viewBox="0 0 28 28" fill="none" xmlns="http://www.w3.org/2000/svg">
<path fill-rule="evenodd" clip-rule="evenodd" d="M12.2985 0.0501509C7.91592 0.739559 4.58888 2.81019 2.2356 6.31301C1.25589 7.77141 0.624799 9.26731 0.206191 11.1236C0.0339504 11.8872 0.00280659 12.319 0.000189238 13.9752C-0.00262021 15.6862 0.0238656 16.0458 0.214428 16.8917C0.585059 18.5361 1.20573 20.0647 2.07414 21.4718L2.39895 21.998L1.73456 24.4182C1.36916 25.7493 1.0453 26.903 1.01471 26.9822C0.981599 27.0681 1.01032 27.1263 1.0862 27.1272C1.15598 27.128 2.36591 26.829 3.77494 26.4626C6.26882 25.8145 6.34321 25.8011 6.58136 25.9562C7.07232 26.2758 8.90322 27.1156 9.6227 27.351C11.1507 27.8508 12.1152 27.9958 13.9356 27.9999C15.7982 28.0042 16.6146 27.8863 18.1886 27.3868C20.3997 26.6852 22.1428 25.6196 23.8568 23.9215C25.8899 21.9071 27.1282 19.6618 27.7436 16.8743C28.0188 15.6273 28.0839 13.3558 27.8829 12.0028C27.2096 7.46498 24.2931 3.46596 20.1735 1.43138C18.1922 0.453123 16.1001 -0.0207724 13.8562 0.000697832C13.1281 0.00766372 12.4272 0.0298735 12.2985 0.0501509ZM9.2355 6.31442C9.35647 6.36916 9.51167 6.50354 9.58051 6.61292C9.79371 6.95215 11.176 10.3296 11.176 10.5114C11.176 10.803 10.8448 11.348 10.2969 11.958C9.93431 12.3618 9.77266 12.6194 9.77237 12.7937C9.77133 13.4176 11.7058 15.7189 13.0924 16.7431C13.8855 17.329 15.7787 18.2968 16.1318 18.2968C16.3716 18.2968 16.7102 17.959 17.6085 16.8232C18.2014 16.0741 18.234 16.0487 18.5426 16.0984C18.7184 16.1268 19.6901 16.5599 20.702 17.0606L22.5421 17.9714L22.5733 18.4361C22.6439 19.4903 22.2472 20.4457 21.498 21.0259C20.3925 21.8814 19.0769 22.2339 17.7523 22.0293C16.1393 21.7802 13.48 20.6435 11.9711 19.5583C9.1065 17.4979 6.24226 13.8616 5.59697 11.4659C5.42905 10.8424 5.43671 9.63182 5.61297 8.95978C5.89285 7.89202 6.74284 6.72092 7.47887 6.38877C7.90264 6.1975 8.88525 6.15597 9.2355 6.31442Z" fill="#7027E2"/>
</svg>
