<svg width="32" height="32" viewBox="0 0 32 32" fill="none" xmlns="http://www.w3.org/2000/svg">
<path d="M11.2174 18.5C11.2174 19.8807 12.3853 21 13.8261 21C15.2668 21 16.4348 19.8807 16.4348 18.5C16.4348 17.1193 15.2668 16 13.8261 16C12.3853 16 11.2174 17.1193 11.2174 18.5ZM11.2174 18.5V13.5C11.2174 12.837 11.4922 12.2011 11.9815 11.7322C12.4707 11.2634 13.1342 11 13.8261 11H15.5652M6 21C6 21 6 14.9052 6 11M20.7826 16H23.3913M26 16H23.3913M23.3913 13.5V16M23.3913 18.5V16" stroke="white" stroke-width="2" stroke-linecap="round" stroke-linejoin="round"/>
</svg>
