<svg width="26" height="26" viewBox="0 0 26 26" fill="none" xmlns="http://www.w3.org/2000/svg">
<path d="M13 21H13.0133M9.22933 17.2293C10.2295 16.2295 11.5858 15.6678 13 15.6678C14.4142 15.6678 15.7705 16.2295 16.7707 17.2293M16.16 10.8107C17.8168 11.328 19.3216 12.2436 20.5426 13.4773M10.5467 5.18667C13.0335 4.80107 15.5761 5.00749 17.9682 5.78915C20.3602 6.57082 22.5341 7.90569 24.3134 9.68533M1 1L25 25M5.45732 13.4573C6.87122 12.0394 8.65728 11.0503 10.6093 10.604L5.45732 13.4573ZM1.68669 9.68667C3.05127 8.31924 4.65221 7.21023 6.41202 6.41333L1.68669 9.68667Z" stroke="white" stroke-width="2" stroke-linecap="round" stroke-linejoin="round"/>
</svg>
