<svg width="68" height="71" viewBox="0 0 68 71" fill="none" xmlns="http://www.w3.org/2000/svg">
<g clip-path="url(#clip0_4006_156)">
<path fill-rule="evenodd" clip-rule="evenodd" d="M-1579 10C-1579 4.47715 -1574.52 0 -1569 0H331C336.523 0 341 4.47715 341 10V94.99C341 94.9955 340.996 95 340.99 95V95C340.985 95 340.98 94.9957 340.98 94.9903C340.45 81.6513 329.469 71 316 71H57.519C52.4555 71 48.2962 67.1673 46.8122 62.3261C40.5424 41.8723 21.508 27 -1 27H-1028C-1050.51 27 -1069.54 41.8723 -1075.81 62.3261C-1077.3 67.1673 -1081.46 71 -1086.52 71H-1554C-1567.47 71 -1578.45 81.6513 -1578.98 94.9903C-1578.98 94.9957 -1578.98 95 -1578.99 95V95C-1579 95 -1579 94.9955 -1579 94.99V10Z" fill="#7027E2"/>
</g>
<defs>
<clipPath id="clip0_4006_156">
<rect width="68" height="71" fill="white"/>
</clipPath>
</defs>
</svg>
