<svg width="24" height="24" viewBox="0 0 24 24" fill="none" xmlns="http://www.w3.org/2000/svg">
<g clip-path="url(#clip0_4006_156)">
<path fill-rule="evenodd" clip-rule="evenodd" d="M-1896 -61C-1896 -66.5228 -1891.52 -71 -1886 -71H14C19.5228 -71 24 -66.5228 24 -61V23.99C24 23.9955 23.9955 24 23.99 24V24C23.9846 24 23.9802 23.9957 23.98 23.9903C23.4501 10.6513 12.4689 0 -1 0H-259.481C-264.545 0 -268.704 -3.8327 -270.188 -8.67391C-276.458 -29.1277 -295.492 -44 -318 -44H-1345C-1367.51 -44 -1386.54 -29.1277 -1392.81 -8.6739C-1394.3 -3.8327 -1398.46 0 -1403.52 0H-1871C-1884.47 0 -1895.45 10.6513 -1895.98 23.9903C-1895.98 23.9957 -1895.98 24 -1895.99 24V24C-1896 24 -1896 23.9955 -1896 23.99V-61Z" fill="#7027E2"/>
</g>
<defs>
<clipPath id="clip0_4006_156">
<rect width="24" height="24" fill="white"/>
</clipPath>
</defs>
</svg>
