<svg width="68" height="71" viewBox="0 0 68 71" fill="none" xmlns="http://www.w3.org/2000/svg">
<g clip-path="url(#clip0_4006_156)">
<path fill-rule="evenodd" clip-rule="evenodd" d="M-485 10C-485 4.47715 -480.523 0 -475 0H1425C1430.52 0 1435 4.47715 1435 10V94.99C1435 94.9955 1435 95 1434.99 95V95C1434.98 95 1434.98 94.9957 1434.98 94.9903C1434.45 81.6513 1423.47 71 1410 71H1151.52C1146.46 71 1142.3 67.1673 1140.81 62.3261C1134.54 41.8723 1115.51 27 1093 27H66C43.492 27 24.4576 41.8723 18.1878 62.3261C16.7038 67.1673 12.5445 71 7.48097 71H-460C-473.469 71 -484.45 81.6513 -484.98 94.9903C-484.98 94.9957 -484.985 95 -484.99 95V95C-484.996 95 -485 94.9955 -485 94.99V10Z" fill="#7027E2"/>
</g>
<defs>
<clipPath id="clip0_4006_156">
<rect width="68" height="71" fill="white"/>
</clipPath>
</defs>
</svg>
