<svg width="24" height="24" viewBox="0 0 24 24" fill="none" xmlns="http://www.w3.org/2000/svg">
<g clip-path="url(#clip0_4006_156)">
<path fill-rule="evenodd" clip-rule="evenodd" d="M0 -61C0 -66.5228 4.47711 -71 9.99996 -71H1910C1915.52 -71 1920 -66.5228 1920 -61V23.99C1920 23.9955 1920 24 1919.99 24V24C1919.98 24 1919.98 23.9957 1919.98 23.9903C1919.45 10.6513 1908.47 0 1895 0H1636.52C1631.46 0 1627.3 -3.8327 1625.81 -8.67391C1619.54 -29.1277 1600.51 -44 1578 -44H551C528.492 -44 509.458 -29.1277 503.188 -8.6739C501.704 -3.8327 497.545 0 492.481 0H25C11.531 0 0.549843 10.6513 0.0200166 23.9903C0.0198033 23.9957 0.0153857 24 0.0100103 24V24C0.00448174 24 0 23.9955 0 23.99V-61Z" fill="#7027E2"/>
</g>
<defs>
<clipPath id="clip0_4006_156">
<rect width="24" height="24" fill="white"/>
</clipPath>
</defs>
</svg>
