<svg width="54" height="54" viewBox="0 0 54 54" fill="none" xmlns="http://www.w3.org/2000/svg">
<path fill-rule="evenodd" clip-rule="evenodd" d="M49.8898 8.79435C50.8474 8.31677 51.2607 7.17375 50.8295 6.19634C50.3983 5.21893 49.2742 4.75101 48.2745 5.13281L42.7547 7.24088C42.183 7.45927 40.8967 8.00292 40.3426 9.374C40.0052 10.2089 39.9524 11.1335 40.1863 11.9979L34.4071 17.386C34.2835 16.8145 34.0892 16.2445 33.8158 15.6831C32.4748 12.93 29.271 11.7642 26.3508 12.1034C23.2815 12.4599 20.2047 14.4428 18.5884 18.2971C18.5712 18.3383 18.5553 18.38 18.5408 18.4222C17.5624 21.2778 15.3294 22.8231 12.1587 23.3047C6.5931 24.15 2.57907 29.1785 3.03532 34.7714C3.7863 43.9773 11.0417 51.2156 20.2693 51.9648C25.8753 52.42 30.9159 48.4154 31.7632 42.8628C32.0262 41.1391 32.5023 39.5898 33.2497 38.4671C33.9509 37.4139 34.8727 36.745 36.2345 36.5906C39.4788 36.2229 41.4929 34.2717 41.9937 31.8846C42.4448 29.7353 41.5802 27.1192 39.2255 26.1321C37.0935 25.2383 35.3316 26.0033 34.3222 26.4415C34.263 26.4671 34.206 26.492 34.1522 26.515C33.122 26.9552 32.8135 27.0109 32.2723 26.7387C31.7236 26.4627 31.5564 26.1271 31.5181 25.9542C31.4884 25.8193 31.4936 25.6208 31.7212 25.3721L42.7738 15.0676C44.0071 15.6393 45.5185 15.4176 46.5361 14.4026C47.4213 13.5192 48.0388 12.4043 48.3168 11.1863L48.7312 9.37234L49.8898 8.79435ZM28.8968 22.5238C28.8605 22.5591 28.8256 22.5954 28.7922 22.6328C27.7038 23.7998 27.2684 25.326 27.5974 26.816C27.9331 28.3356 29.0056 29.5815 30.4652 30.3155C32.7553 31.4668 34.6163 30.6739 35.733 30.1967C36.9064 29.6952 37.1878 29.6223 37.6704 29.8246C37.8302 29.8917 38.223 30.3061 38.064 31.0639C37.9548 31.5842 37.4915 32.4171 35.7812 32.6109C33.067 32.9185 31.158 34.3697 29.9053 36.2512C28.6991 38.063 28.0989 40.2631 27.794 42.26C27.2618 45.7479 24.0845 48.256 20.5949 47.9726C13.3277 47.3826 7.62834 41.6967 7.0369 34.4466C6.75291 30.9653 9.26698 27.7955 12.763 27.2644C17.0296 26.6163 20.7318 24.3243 22.3158 19.7871C23.3809 17.2964 25.2118 16.2681 26.8151 16.0818C28.5797 15.8769 29.822 16.6479 30.2046 17.4336C30.9315 18.926 30.5152 20.9092 28.9257 22.4947C28.9161 22.5044 28.9065 22.5141 28.8968 22.5238ZM21.3043 29.6191C20.5203 28.8369 19.2493 28.8369 18.4653 29.6191C17.6814 30.4012 17.6814 31.6693 18.4653 32.4513L21.4765 35.4553C22.2604 36.2374 23.5314 36.2374 24.3153 35.4553C25.0992 34.6733 25.0992 33.4052 24.3153 32.6231L21.3043 29.6191ZM22.308 38.6312L19.2969 35.6272C18.5129 34.8449 17.2419 34.8449 16.4579 35.6272C15.674 36.4092 15.674 37.6773 16.4579 38.4593L19.469 41.4633C20.253 42.2454 21.524 42.2454 22.308 41.4633C23.0918 40.6813 23.0918 39.4132 22.308 38.6312Z" fill="#7027E2"/>
</svg>
