<svg width="54" height="54" viewBox="0 0 54 54" fill="none" xmlns="http://www.w3.org/2000/svg">
<path d="M26.1 14.4H26.8819C32.367 14.4 35.1095 14.4 36.1505 15.3851C37.0505 16.2367 37.4493 17.4911 37.2063 18.706C36.9252 20.1114 34.6862 21.6951 30.2081 24.8626L22.8919 30.0374C18.4138 33.2049 16.1748 34.7886 15.8937 36.194C15.6507 37.4089 16.0495 38.6633 16.9495 39.5149C17.9905 40.5 20.733 40.5 26.2181 40.5H27.9M19.8 14.4C19.8 17.3823 17.3823 19.8 14.4 19.8C11.4177 19.8 9 17.3823 9 14.4C9 11.4177 11.4177 9 14.4 9C17.3823 9 19.8 11.4177 19.8 14.4ZM45 39.6C45 42.5823 42.5823 45 39.6 45C36.6177 45 34.2 42.5823 34.2 39.6C34.2 36.6177 36.6177 34.2 39.6 34.2C42.5823 34.2 45 36.6177 45 39.6Z" stroke="#7027E2" stroke-width="4" stroke-linecap="round" stroke-linejoin="round"/>
</svg>
